<?xml version="1.0" standalone="no"?>
<!DOCTYPE svg PUBLIC "-//W3C//DTD SVG 20010904//EN"
 "http://www.w3.org/TR/2001/REC-SVG-20010904/DTD/svg10.dtd">
<svg version="1.0" xmlns="http://www.w3.org/2000/svg"
  viewBox="0 0 300.000000 31.000000"
 preserveAspectRatio="xMidYMid meet">

<g transform="translate(0.000000,31.000000) scale(0.100000,-0.100000)"
fill="#000000" stroke="none" fill="#fff">
<path d="M76 287 c-46 -26 -76 -77 -76 -130 0 -89 55 -148 144 -154 88 -7 145
39 161 130 l7 37 -76 0 -76 0 0 -30 c0 -27 3 -30 30 -30 27 0 30 -2 20 -19
-14 -27 -46 -35 -79 -21 -78 32 -60 170 22 170 17 0 40 -9 51 -19 19 -18 24
-18 55 -5 32 13 33 15 19 37 -37 56 -134 73 -202 34z"/>
<path d="M1453 291 c-55 -26 -83 -71 -83 -136 0 -64 26 -108 81 -136 105 -53
226 12 236 128 11 117 -120 197 -234 144z m135 -83 c41 -39 16 -117 -43 -132
-60 -15 -119 57 -92 112 25 54 88 63 135 20z"/>
<path d="M2144 292 c-57 -27 -86 -71 -86 -131 0 -58 21 -102 64 -133 45 -31
143 -33 184 -2 45 33 67 70 71 121 5 53 -18 98 -69 136 -38 28 -113 32 -164 9z
m134 -88 c27 -31 28 -63 2 -97 -40 -50 -108 -42 -136 16 -14 30 -15 38 -3 63
28 58 93 66 137 18z"/>
<path d="M2855 301 c-73 -30 -80 -135 -12 -161 73 -27 78 -30 75 -48 -4 -21
-49 -28 -79 -11 -19 10 -25 9 -36 -7 -21 -29 -15 -44 22 -60 90 -37 175 9 175
95 0 33 -31 64 -82 80 -64 21 -54 61 12 47 23 -4 32 -1 40 14 16 29 12 37 -21
49 -37 13 -66 13 -94 2z"/>
<path d="M370 155 l0 -145 85 0 85 0 0 30 c0 29 -2 30 -45 30 l-45 0 0 115 0
115 -40 0 -40 0 0 -145z"/>
<path d="M693 283 c-3 -10 -28 -74 -55 -142 -26 -68 -48 -126 -48 -128 0 -1
18 -3 40 -3 34 0 42 4 50 25 9 22 15 25 64 25 49 0 54 -2 60 -25 6 -22 12 -25
47 -25 28 0 39 4 37 13 -2 7 -25 72 -53 145 l-50 132 -43 0 c-32 0 -44 -5 -49
-17z m76 -155 c1 -5 -12 -8 -29 -8 -19 0 -28 4 -25 13 2 6 10 26 16 42 l11 30
13 -35 c8 -19 14 -38 14 -42z"/>
<path d="M990 297 c0 -2 -11 -66 -25 -143 -14 -76 -25 -140 -25 -141 0 -2 17
-3 39 -3 l39 0 7 58 c13 112 15 112 50 26 42 -105 56 -105 100 0 36 87 36 87
50 -31 l7 -53 38 0 c38 0 39 1 34 32 -3 18 -13 83 -22 143 l-17 110 -38 3
c-36 3 -38 2 -57 -45 -11 -26 -26 -61 -33 -77 l-14 -30 -28 77 -28 77 -38 0
c-22 0 -39 -1 -39 -3z"/>
<path d="M1764 287 c-2 -7 -3 -71 -2 -143 l3 -129 37 -3 37 -3 3 53 3 53 33
-52 c32 -51 36 -53 78 -53 24 0 44 3 44 6 0 3 -17 28 -38 55 l-39 51 29 28
c44 44 38 109 -13 135 -36 19 -167 21 -175 2z m133 -63 c8 -22 -9 -48 -36 -52
-18 -3 -21 1 -21 32 0 32 3 36 25 36 15 0 28 -7 32 -16z"/>
<path d="M2450 200 c0 -109 14 -161 49 -179 38 -21 104 -24 144 -7 53 22 67
61 67 186 l0 100 -40 0 -40 0 0 -103 c0 -112 -6 -127 -52 -127 -39 0 -48 25
-48 134 l0 96 -40 0 -40 0 0 -100z"/>
</g>
</svg>
