<svg width="138" height="28" fill="#fff" viewBox="0 0 138 28" xmlns="http://www.w3.org/2000/svg" id="logo" class="logo-svg" aria-labelledby="homepage-link">
            <title id="homepage-link">JACQUEMUS homepage</title>
            <path d="M30 12V7.6c.1-2.7 1.2-4.9 3.7-6a6.3 6.3 0 018.9 4.7l.2 2c0 .1 0 .2-.2.2h-4c-.1 0-.2-.1-.2-.3 0-.7-.1-1.3-.5-2-.8-1.1-2.6-1-3.2.4-.3.5-.4 1-.4 1.6v11.6c0 .4 0 .8.2 1.2.4 1 1 1.4 2 1.4.8 0 1.4-.5 1.7-1.5.2-.4.2-.8.2-1.2 0-.2 0-.3.3-.3H42.6c.1 0 .2 0 .2.2 0 1.8-.4 3.4-1.5 4.9a5.8 5.8 0 01-4.2 2.3c-1.7.2-3.3-.1-4.7-1.3-1.3-1-2-2.5-2.3-4.1A141.3 141.3 0 0030 12zm97.2 7.4h1.9c.2 0 .3 0 .3.3 0 .6 0 1.1.3 1.6.3.8.9 1.3 1.8 1.3.8 0 1.5-.3 1.9-1.2.6-1.3.5-2.7-.2-4-.5-.9-1.3-1.2-2.1-1.4h-.1c-1-.3-2-.6-2.8-1.1a6.6 6.6 0 01-3-5c-.3-1.7-.2-3.4.5-5 .9-2.3 2.6-3.6 5-3.8 1.5-.2 2.9 0 4.2.9 1.6 1 2.5 2.7 2.8 4.7l.2 1.5c0 .2 0 .3-.3.3h-3.8c-.2 0-.3 0-.3-.3 0-.5 0-1-.2-1.4-.3-1-1-1.5-1.8-1.5a2 2 0 00-2 1.4c-.2.8-.2 1.6 0 2.4.1 1 .7 1.6 1.6 2l1.3.5.6.2c2.9 1 4.5 3 4.9 6 .2 2 .1 3.8-.7 5.5-1 2-2.5 3.2-4.7 3.5-1.9.3-3.6-.1-5.2-1.4a6.9 6.9 0 01-2.1-4.1l-.2-1.6c0-.2.1-.3.3-.3h1.9zm-4.5-5.9V9.2 1.7c0-.3 0-.3-.3-.3h-3.7c-.3 0-.4 0-.4.4V19.5c0 .5 0 1.1-.3 1.6-.3.8-.8 1.3-1.6 1.3-.9 0-1.5-.3-1.9-1.2-.3-.5-.3-1.1-.3-1.7v-5.1V1.7c0-.3 0-.3-.4-.3h-3.6c-.3 0-.4 0-.4.4a7865.5 7865.5 0 01.2 19.5c.3 1.8 1 3.3 2.5 4.4a6 6 0 004 1.2c2-.1 3.5-.8 4.7-2.4a7.9 7.9 0 001.5-4.9v-6zM61 8.7v-7c0-.3 0-.3.4-.3H65c.3 0 .4 0 .4.4v17.7c0 .8 0 1.5.5 2a1.9 1.9 0 003.2-.1 4 4 0 00.4-1.9V1.8v-.1-.3h4.1c.2 0 .3 0 .3.3v17.7c0 1.7-.3 3.4-1.3 4.8a5.9 5.9 0 01-4.8 2.7 6 6 0 01-4-1.1 6.8 6.8 0 01-2.7-4.6 11 11 0 01-.1-2v-5.5-2.8-2.2zm41.5 4.8l-.5 1.6a9957.6 9957.6 0 01-3.2 11.2c0 .1 0 .2-.2.2s-.2 0-.2-.2l-3.7-12.5-.2-.9-.1-.2v13.5c0 .2 0 .3-.4.3h-3.4c-.2 0-.3 0-.3-.3V1.7c0-.2.1-.3.4-.3h3.5c.3 0 .4 0 .5.3l2.7 9.6 1.2 4 .1-.3 3.9-13.3c0-.2.1-.3.4-.3h3.5c.3 0 .3 0 .3.3v24.5c0 .3 0 .3-.3.3h-3.4c-.3 0-.3 0-.3-.3V16 12.7l-.3.7zm-25.6-2.2v14.9c0 .2 0 .3.3.3h10.3c.2 0 .2 0 .2-.3v-3.6c0-.3 0-.3-.3-.3h-5.8c-.3 0-.4 0-.4-.3v-5.8c0-.3.1-.4.4-.4H86.4c.2 0 .3 0 .3-.3V12c0-.3-.1-.3-.4-.3h-4.7c-.3 0-.4 0-.4-.4V6c0-.3.1-.4.4-.4a489.4 489.4 0 005.7 0c.3 0 .4 0 .4-.3V1.8c0-.3 0-.4-.4-.4h-10c-.3 0-.4 0-.4.4v9.5zm-64 2.4v-4-8c0-.2 0-.3-.4-.3H9c-.3 0-.4 0-.4.4v17.8a4 4 0 01-.4 1.9c-.6 1.1-2 1.3-2.9.3-.4-.5-.6-1-.8-1.7 0-.2 0-.3-.2-.3a304.3 304.3 0 01-4.2.3 17.3 17.3 0 01.1 1c.7 3.3 3.3 6 7 5.8 1.5-.1 2.9-.7 4-2a7.6 7.6 0 001.8-5.1v-6.1zM58 8.5c0-.7 0-1.5-.2-2.2-.4-2-1.3-3.6-3.1-4.5a6.6 6.6 0 00-4-.7c-1.7.2-3.2 1-4.3 2.4a8.2 8.2 0 00-1.4 4.9V19l.1 2.1c.4 2 1.2 3.7 3 4.8 1.7 1.1 3.5 1.2 5.4.7.3 0 .4 0 .6.2a12.7 12.7 0 00.8 1c0 .2.1.2.3.1a202.5 202.5 0 012.4-2l-.5-.6-.4-.6c-.1-.2-.1-.3 0-.4 1-1.4 1.3-3 1.3-4.7v-4V14v-1.8-3.6zm-4.3 11.9l-.2-.3-.4-.5a130.9 130.9 0 01-2.6 1.7c-.2.1-.2.2 0 .4a11.9 11.9 0 01.6.9c-.7-.2-1.2-.6-1.4-1.2-.3-.6-.3-1.3-.3-2A1791.1 1791.1 0 0149.7 7c.3-1 1-1.5 2-1.5s1.6.5 1.9 1.5l.2 1.3v12.1zm-26.2.9l1 5.1v.1h-4.1c-.1 0-.2 0-.2-.2a163.5 163.5 0 00-.8-3.4 465.5 465.5 0 01-4.6.2l-.3 1.9-.2 1.2c0 .2 0 .3-.3.3h-3.6c-.3 0-.3 0-.3-.3l2.5-12 .8-4.2.5-2.4 1.2-6c0-.2.2-.2.4-.2h3.8c.2 0 .3 0 .3.3l3 14.9v.4l1 4.3zm-4.8-2.7c.2 0 .2 0 .2-.2l-.1-.5v-.3l-.7-4a10518.8 10518.8 0 01-.9-3.8l-.7 4a1335.7 1335.7 0 01-.7 4.8h3z"></path>
        </svg>